<mxfile host="app.diagrams.net" modified="2023-11-24T11:38:10.091Z" agent="Mozilla/5.0 (Windows NT 10.0; Win64; x64) AppleWebKit/537.36 (KHTML, like Gecko) Chrome/119.0.0.0 Safari/537.36" etag="z7L6qAK-yyETq03hre1M" version="22.1.3" type="device">
  <diagram name="Página-1" id="7ft2vfrQe6iHKA_jVVXu">
    <mxGraphModel dx="819" dy="433" grid="1" gridSize="10" guides="1" tooltips="1" connect="1" arrows="1" fold="1" page="1" pageScale="1" pageWidth="827" pageHeight="1169" math="0" shadow="0">
      <root>
        <mxCell id="0" />
        <mxCell id="1" parent="0" />
        <mxCell id="ea8k9zJu_2jAS2G6Gc2j-1" value="Animal" style="swimlane;fontStyle=1;align=center;verticalAlign=top;childLayout=stackLayout;horizontal=1;startSize=26;horizontalStack=0;resizeParent=1;resizeParentMax=0;resizeLast=0;collapsible=1;marginBottom=0;whiteSpace=wrap;html=1;" vertex="1" parent="1">
          <mxGeometry x="320" y="290" width="120" height="86" as="geometry" />
        </mxCell>
        <mxCell id="ea8k9zJu_2jAS2G6Gc2j-2" value="+ nome: String" style="text;strokeColor=none;fillColor=none;align=left;verticalAlign=top;spacingLeft=4;spacingRight=4;overflow=hidden;rotatable=0;points=[[0,0.5],[1,0.5]];portConstraint=eastwest;whiteSpace=wrap;html=1;" vertex="1" parent="ea8k9zJu_2jAS2G6Gc2j-1">
          <mxGeometry y="26" width="120" height="26" as="geometry" />
        </mxCell>
        <mxCell id="ea8k9zJu_2jAS2G6Gc2j-3" value="" style="line;strokeWidth=1;fillColor=none;align=left;verticalAlign=middle;spacingTop=-1;spacingLeft=3;spacingRight=3;rotatable=0;labelPosition=right;points=[];portConstraint=eastwest;strokeColor=inherit;" vertex="1" parent="ea8k9zJu_2jAS2G6Gc2j-1">
          <mxGeometry y="52" width="120" height="8" as="geometry" />
        </mxCell>
        <mxCell id="ea8k9zJu_2jAS2G6Gc2j-4" value="+ emitirSom(): void" style="text;strokeColor=none;fillColor=none;align=left;verticalAlign=top;spacingLeft=4;spacingRight=4;overflow=hidden;rotatable=0;points=[[0,0.5],[1,0.5]];portConstraint=eastwest;whiteSpace=wrap;html=1;" vertex="1" parent="ea8k9zJu_2jAS2G6Gc2j-1">
          <mxGeometry y="60" width="120" height="26" as="geometry" />
        </mxCell>
        <mxCell id="ea8k9zJu_2jAS2G6Gc2j-5" value="Gato" style="swimlane;fontStyle=1;align=center;verticalAlign=top;childLayout=stackLayout;horizontal=1;startSize=26;horizontalStack=0;resizeParent=1;resizeParentMax=0;resizeLast=0;collapsible=1;marginBottom=0;whiteSpace=wrap;html=1;" vertex="1" parent="1">
          <mxGeometry x="240" y="430" width="120" height="86" as="geometry" />
        </mxCell>
        <mxCell id="ea8k9zJu_2jAS2G6Gc2j-6" value="+ nome: String" style="text;strokeColor=none;fillColor=none;align=left;verticalAlign=top;spacingLeft=4;spacingRight=4;overflow=hidden;rotatable=0;points=[[0,0.5],[1,0.5]];portConstraint=eastwest;whiteSpace=wrap;html=1;" vertex="1" parent="ea8k9zJu_2jAS2G6Gc2j-5">
          <mxGeometry y="26" width="120" height="26" as="geometry" />
        </mxCell>
        <mxCell id="ea8k9zJu_2jAS2G6Gc2j-7" value="" style="line;strokeWidth=1;fillColor=none;align=left;verticalAlign=middle;spacingTop=-1;spacingLeft=3;spacingRight=3;rotatable=0;labelPosition=right;points=[];portConstraint=eastwest;strokeColor=inherit;" vertex="1" parent="ea8k9zJu_2jAS2G6Gc2j-5">
          <mxGeometry y="52" width="120" height="8" as="geometry" />
        </mxCell>
        <mxCell id="ea8k9zJu_2jAS2G6Gc2j-8" value="+ emitirSom(): void" style="text;strokeColor=none;fillColor=none;align=left;verticalAlign=top;spacingLeft=4;spacingRight=4;overflow=hidden;rotatable=0;points=[[0,0.5],[1,0.5]];portConstraint=eastwest;whiteSpace=wrap;html=1;" vertex="1" parent="ea8k9zJu_2jAS2G6Gc2j-5">
          <mxGeometry y="60" width="120" height="26" as="geometry" />
        </mxCell>
        <mxCell id="ea8k9zJu_2jAS2G6Gc2j-9" value="Cachorro" style="swimlane;fontStyle=1;align=center;verticalAlign=top;childLayout=stackLayout;horizontal=1;startSize=26;horizontalStack=0;resizeParent=1;resizeParentMax=0;resizeLast=0;collapsible=1;marginBottom=0;whiteSpace=wrap;html=1;" vertex="1" parent="1">
          <mxGeometry x="400" y="430" width="130" height="118" as="geometry" />
        </mxCell>
        <mxCell id="ea8k9zJu_2jAS2G6Gc2j-10" value="+ nome: String&lt;br&gt;+ faro: int" style="text;strokeColor=none;fillColor=none;align=left;verticalAlign=top;spacingLeft=4;spacingRight=4;overflow=hidden;rotatable=0;points=[[0,0.5],[1,0.5]];portConstraint=eastwest;whiteSpace=wrap;html=1;" vertex="1" parent="ea8k9zJu_2jAS2G6Gc2j-9">
          <mxGeometry y="26" width="130" height="34" as="geometry" />
        </mxCell>
        <mxCell id="ea8k9zJu_2jAS2G6Gc2j-11" value="" style="line;strokeWidth=1;fillColor=none;align=left;verticalAlign=middle;spacingTop=-1;spacingLeft=3;spacingRight=3;rotatable=0;labelPosition=right;points=[];portConstraint=eastwest;strokeColor=inherit;" vertex="1" parent="ea8k9zJu_2jAS2G6Gc2j-9">
          <mxGeometry y="60" width="130" height="8" as="geometry" />
        </mxCell>
        <mxCell id="ea8k9zJu_2jAS2G6Gc2j-12" value="+ emitirSom(): void&lt;br&gt;+ abanarRabo():void" style="text;strokeColor=none;fillColor=none;align=left;verticalAlign=top;spacingLeft=4;spacingRight=4;overflow=hidden;rotatable=0;points=[[0,0.5],[1,0.5]];portConstraint=eastwest;whiteSpace=wrap;html=1;" vertex="1" parent="ea8k9zJu_2jAS2G6Gc2j-9">
          <mxGeometry y="68" width="130" height="50" as="geometry" />
        </mxCell>
        <mxCell id="ea8k9zJu_2jAS2G6Gc2j-13" value="Extends" style="endArrow=block;endSize=16;endFill=0;html=1;rounded=0;exitX=0.5;exitY=0;exitDx=0;exitDy=0;entryX=0.383;entryY=1.026;entryDx=0;entryDy=0;entryPerimeter=0;" edge="1" parent="1" source="ea8k9zJu_2jAS2G6Gc2j-5" target="ea8k9zJu_2jAS2G6Gc2j-4">
          <mxGeometry width="160" relative="1" as="geometry">
            <mxPoint x="300" y="390" as="sourcePoint" />
            <mxPoint x="460" y="390" as="targetPoint" />
          </mxGeometry>
        </mxCell>
        <mxCell id="ea8k9zJu_2jAS2G6Gc2j-14" value="Extends" style="endArrow=block;endSize=16;endFill=0;html=1;rounded=0;exitX=0.483;exitY=-0.004;exitDx=0;exitDy=0;entryX=0.678;entryY=0.974;entryDx=0;entryDy=0;entryPerimeter=0;exitPerimeter=0;" edge="1" parent="1" source="ea8k9zJu_2jAS2G6Gc2j-9" target="ea8k9zJu_2jAS2G6Gc2j-4">
          <mxGeometry width="160" relative="1" as="geometry">
            <mxPoint x="310" y="440" as="sourcePoint" />
            <mxPoint x="366" y="387" as="targetPoint" />
          </mxGeometry>
        </mxCell>
        <mxCell id="ea8k9zJu_2jAS2G6Gc2j-15" value="&lt;h1&gt;Herança&lt;/h1&gt;&lt;p&gt;Especianlização,&amp;nbsp;&lt;span style=&quot;background-color: initial;&quot;&gt;Generalização&lt;/span&gt;&lt;/p&gt;" style="text;html=1;strokeColor=none;fillColor=none;spacing=5;spacingTop=-20;whiteSpace=wrap;overflow=hidden;rounded=0;" vertex="1" parent="1">
          <mxGeometry x="470" y="290" width="190" height="70" as="geometry" />
        </mxCell>
        <mxCell id="ea8k9zJu_2jAS2G6Gc2j-16" value="DC (Diagrama de Classes)" style="text;html=1;strokeColor=none;fillColor=none;align=center;verticalAlign=middle;whiteSpace=wrap;rounded=0;" vertex="1" parent="1">
          <mxGeometry x="305" y="230" width="150" height="30" as="geometry" />
        </mxCell>
      </root>
    </mxGraphModel>
  </diagram>
</mxfile>
